<svg width="400" height="104" viewBox="0 0 400 104" fill="none" xmlns="http://www.w3.org/2000/svg">
    <g clip-path="url(#clip0_470_11498)">
        <rect width="400" height="104" rx="12" fill="#0E0E15"/>
        <rect width="400" height="104" rx="12" fill="url(#paint0_linear_470_11498)" fill-opacity="0.2"/>
        <g clip-path="url(#clip1_470_11498)">
            <rect x="176.5" y="28.5" width="47" height="47" rx="6.5" stroke="#1BCD54" stroke-width="3"/>
            <path d="M207.061 50.9393C206.475 50.3536 205.525 50.3536 204.939 50.9393L195.393 60.4853C194.808 61.0711 194.808 62.0208 195.393 62.6066C195.979 63.1924 196.929 63.1924 197.515 62.6066L206 54.1213L214.485 62.6066C215.071 63.1924 216.021 63.1924 216.607 62.6066C217.192 62.0208 217.192 61.0711 216.607 60.4853L207.061 50.9393ZM207.5 77L207.5 52L204.5 52L204.5 77L207.5 77Z" fill="#1BCD54"/>
            <path d="M192.939 53.0607C193.525 53.6464 194.475 53.6464 195.061 53.0607L204.607 43.5147C205.192 42.9289 205.192 41.9792 204.607 41.3934C204.021 40.8076 203.071 40.8076 202.485 41.3934L194 49.8787L185.515 41.3934C184.929 40.8076 183.979 40.8076 183.393 41.3934C182.808 41.9792 182.808 42.9289 183.393 43.5147L192.939 53.0607ZM192.5 27L192.5 52L195.5 52L195.5 27L192.5 27Z" fill="#1BCD54"/>
        </g>
        <rect opacity="0.5" x="106" y="-4" width="75" height="3.99999" rx="2" transform="rotate(90 106 -4)" fill="url(#paint1_linear_470_11498)"/>
        <rect opacity="0.5" width="75" height="3.99999" rx="2" transform="matrix(-9.4708e-08 -1 -1 2.01745e-08 338 108)" fill="url(#paint2_linear_470_11498)"/>
        <rect opacity="0.5" width="75" height="3.99999" rx="2" transform="matrix(9.4708e-08 1 1 -2.01745e-08 62 -4)" fill="url(#paint3_linear_470_11498)"/>
        <rect opacity="0.5" x="294" y="108" width="75" height="3.99999" rx="2" transform="rotate(-90 294 108)" fill="url(#paint4_linear_470_11498)"/>
        <rect opacity="0.5" x="126" y="-4" width="54" height="3.99999" rx="2" transform="rotate(90 126 -4)" fill="url(#paint5_linear_470_11498)"/>
        <rect opacity="0.5" width="54" height="3.99999" rx="2" transform="matrix(-9.4708e-08 -1 -1 2.01745e-08 358 108)" fill="url(#paint6_linear_470_11498)"/>
        <rect opacity="0.5" width="54" height="3.99999" rx="2" transform="matrix(9.4708e-08 1 1 -2.01745e-08 42 -4)" fill="url(#paint7_linear_470_11498)"/>
        <rect opacity="0.5" x="274" y="108" width="54" height="3.99999" rx="2" transform="rotate(-90 274 108)" fill="url(#paint8_linear_470_11498)"/>
        <rect opacity="0.5" x="86" y="-4" width="84" height="3.99999" rx="2" transform="rotate(90 86 -4)" fill="url(#paint9_linear_470_11498)"/>
        <rect opacity="0.5" width="84" height="3.99999" rx="2" transform="matrix(-9.4708e-08 -1 -1 2.01745e-08 318 108)" fill="url(#paint10_linear_470_11498)"/>
    </g>
    <rect x="0.5" y="0.5" width="399" height="103" rx="11.5" stroke="#3B3B41"/>
    <defs>
        <linearGradient id="paint0_linear_470_11498" x1="290.5" y1="104" x2="103.5" y2="-83" gradientUnits="userSpaceOnUse">
            <stop stop-opacity="0"/>
            <stop offset="0.381671" stop-color="#676767"/>
            <stop offset="0.388004" stop-opacity="0"/>
        </linearGradient>
        <linearGradient id="paint1_linear_470_11498" x1="181" y1="-2.70615e-06" x2="106" y2="-2.70615e-06" gradientUnits="userSpaceOnUse">
            <stop stop-color="#D9D9D9"/>
            <stop offset="1" stop-color="#D9D9D9" stop-opacity="0"/>
        </linearGradient>
        <linearGradient id="paint2_linear_470_11498" x1="75" y1="4" x2="0" y2="4" gradientUnits="userSpaceOnUse">
            <stop stop-color="#D9D9D9"/>
            <stop offset="1" stop-color="#D9D9D9" stop-opacity="0"/>
        </linearGradient>
        <linearGradient id="paint3_linear_470_11498" x1="75" y1="4" x2="0" y2="4" gradientUnits="userSpaceOnUse">
            <stop stop-color="#D9D9D9"/>
            <stop offset="1" stop-color="#D9D9D9" stop-opacity="0"/>
        </linearGradient>
        <linearGradient id="paint4_linear_470_11498" x1="369" y1="112" x2="294" y2="112" gradientUnits="userSpaceOnUse">
            <stop stop-color="#D9D9D9"/>
            <stop offset="1" stop-color="#D9D9D9" stop-opacity="0"/>
        </linearGradient>
        <linearGradient id="paint5_linear_470_11498" x1="180" y1="-5.60377e-07" x2="126" y2="-5.60377e-07" gradientUnits="userSpaceOnUse">
            <stop stop-color="#D9D9D9"/>
            <stop offset="1" stop-color="#D9D9D9" stop-opacity="0"/>
        </linearGradient>
        <linearGradient id="paint6_linear_470_11498" x1="54" y1="4" x2="0" y2="4" gradientUnits="userSpaceOnUse">
            <stop stop-color="#D9D9D9"/>
            <stop offset="1" stop-color="#D9D9D9" stop-opacity="0"/>
        </linearGradient>
        <linearGradient id="paint7_linear_470_11498" x1="54" y1="4" x2="0" y2="4" gradientUnits="userSpaceOnUse">
            <stop stop-color="#D9D9D9"/>
            <stop offset="1" stop-color="#D9D9D9" stop-opacity="0"/>
        </linearGradient>
        <linearGradient id="paint8_linear_470_11498" x1="328" y1="112" x2="274" y2="112" gradientUnits="userSpaceOnUse">
            <stop stop-color="#D9D9D9"/>
            <stop offset="1" stop-color="#D9D9D9" stop-opacity="0"/>
        </linearGradient>
        <linearGradient id="paint9_linear_470_11498" x1="170" y1="-3.4214e-06" x2="86" y2="-3.4214e-06" gradientUnits="userSpaceOnUse">
            <stop stop-color="#D9D9D9"/>
            <stop offset="1" stop-color="#D9D9D9" stop-opacity="0"/>
        </linearGradient>
        <linearGradient id="paint10_linear_470_11498" x1="84" y1="4" x2="0" y2="4" gradientUnits="userSpaceOnUse">
            <stop stop-color="#D9D9D9"/>
            <stop offset="1" stop-color="#D9D9D9" stop-opacity="0"/>
        </linearGradient>
        <clipPath id="clip0_470_11498">
            <rect width="400" height="104" rx="12" fill="white"/>
        </clipPath>
        <clipPath id="clip1_470_11498">
            <rect width="64" height="64" fill="white" transform="translate(168 20)"/>
        </clipPath>
    </defs>
</svg>
