<svg fill="none" height="104" viewBox="0 0 400 104" width="400" xmlns="http://www.w3.org/2000/svg">
    <g clip-path="url(#clip0_470_11484)">
        <rect fill="#0E0E15" height="104" rx="12" width="400"/>
        <rect fill="url(#paint0_linear_470_11484)" fill-opacity="0.2" height="104" rx="12" width="400"/>
        <g clip-path="url(#clip1_470_11484)">
            <path d="M176.5 51C176.5 38.5736 186.574 28.5 199 28.5H223.5V53C223.5 65.4264 213.426 75.5 201 75.5H176.5V51Z"
                  stroke="#1BCD54" stroke-width="3"/>
            <path d="M186.5 52C186.5 44.5442 192.544 38.5 200 38.5C207.456 38.5 213.5 44.5442 213.5 52C213.5 59.4558 207.456 65.5 200 65.5C192.544 65.5 186.5 59.4558 186.5 52Z"
                  stroke="#1BCD54" stroke-width="3"/>
        </g>
        <circle cx="32" cy="32" opacity="0.5" r="30.5" stroke="url(#paint1_linear_470_11484)"
                stroke-width="3" transform="matrix(-1 0 0 1 407 57)"/>
        <circle cx="32" cy="32" opacity="0.5" r="30.5" stroke="url(#paint2_linear_470_11484)"
                stroke-width="3" transform="matrix(1 -8.74228e-08 -8.74228e-08 -1 -7 52)"/>
        <circle cx="32" cy="32" opacity="0.5" r="30.5" stroke="url(#paint3_linear_470_11484)"
                stroke-width="3" transform="matrix(1 -8.74228e-08 -8.74228e-08 -1 274 52)"/>
        <circle cx="32" cy="32" opacity="0.5" r="30.5" stroke="url(#paint4_linear_470_11484)"
                stroke-width="3" transform="matrix(-1 0 0 1 126 57)"/>
        <circle cx="32" cy="32" opacity="0.5" r="30.5" stroke="url(#paint5_linear_470_11484)"
                stroke-width="3" transform="matrix(-4.37114e-08 1 1 4.37114e-08 343 -12)"/>
        <circle cx="32" cy="32" opacity="0.5" r="30.5" stroke="url(#paint6_linear_470_11484)"
                stroke-width="3" transform="matrix(-4.37114e-08 -1 -1 4.37114e-08 57 121)"/>
    </g>
    <rect height="103" rx="11.5" stroke="#3B3B41" width="399" x="0.5" y="0.5"/>
    <defs>
        <linearGradient gradientUnits="userSpaceOnUse" id="paint0_linear_470_11484" x1="290.5" x2="103.5" y1="104"
                        y2="-83">
            <stop stop-opacity="0"/>
            <stop offset="0.381671" stop-color="#676767"/>
            <stop offset="0.388004" stop-opacity="0"/>
        </linearGradient>
        <linearGradient gradientUnits="userSpaceOnUse" id="paint1_linear_470_11484" x1="63.9999" x2="32" y1="-7.58671e-05"
                        y2="31.9998">
            <stop stop-color="#D9D9D9"/>
            <stop offset="1" stop-color="#D9D9D9" stop-opacity="0"/>
        </linearGradient>
        <linearGradient gradientUnits="userSpaceOnUse" id="paint2_linear_470_11484" x1="63.9999" x2="32" y1="-7.58671e-05"
                        y2="31.9998">
            <stop stop-color="#D9D9D9"/>
            <stop offset="1" stop-color="#D9D9D9" stop-opacity="0"/>
        </linearGradient>
        <linearGradient gradientUnits="userSpaceOnUse" id="paint3_linear_470_11484" x1="63.9999" x2="32" y1="-7.58671e-05"
                        y2="31.9998">
            <stop stop-color="#D9D9D9"/>
            <stop offset="1" stop-color="#D9D9D9" stop-opacity="0"/>
        </linearGradient>
        <linearGradient gradientUnits="userSpaceOnUse" id="paint4_linear_470_11484" x1="63.9999" x2="32" y1="-7.58671e-05"
                        y2="31.9998">
            <stop stop-color="#D9D9D9"/>
            <stop offset="1" stop-color="#D9D9D9" stop-opacity="0"/>
        </linearGradient>
        <linearGradient gradientUnits="userSpaceOnUse" id="paint5_linear_470_11484" x1="63.9999" x2="32" y1="-7.58671e-05"
                        y2="31.9998">
            <stop stop-color="#D9D9D9"/>
            <stop offset="1" stop-color="#D9D9D9" stop-opacity="0"/>
        </linearGradient>
        <linearGradient gradientUnits="userSpaceOnUse" id="paint6_linear_470_11484" x1="63.9999" x2="32" y1="-7.58671e-05"
                        y2="31.9998">
            <stop stop-color="#D9D9D9"/>
            <stop offset="1" stop-color="#D9D9D9" stop-opacity="0"/>
        </linearGradient>
        <clipPath id="clip0_470_11484">
            <rect fill="white" height="104" rx="12" width="400"/>
        </clipPath>
        <clipPath id="clip1_470_11484">
            <rect fill="white" height="64" transform="translate(168 20)" width="64"/>
        </clipPath>
    </defs>
</svg>
