<svg width="565" height="70" viewBox="0 0 565 70" fill="none" xmlns="http://www.w3.org/2000/svg">
    <g clip-path="url(#clip0_602_33552)">
        <circle cx="5" cy="35" r="5" fill="white"/>
        <circle cx="5" cy="35" r="5" fill="white"/>
        <circle cx="5" cy="35" r="5" fill="white"/>
        <circle cx="5" cy="5" r="5" fill="white"/>
        <circle cx="5" cy="20" r="5" fill="white"/>
        <circle cx="5" cy="20" r="5" fill="white"/>
        <circle cx="5" cy="20" r="5" fill="white"/>
        <circle cx="5" cy="50" r="5" fill="white"/>
        <circle cx="5" cy="50" r="5" fill="white"/>
        <circle cx="5" cy="50" r="5" fill="white"/>
        <circle cx="5" cy="5" r="5" fill="white"/>
        <circle cx="5" cy="20" r="5" fill="white"/>
        <circle cx="5" cy="20" r="5" fill="white"/>
        <circle cx="5" cy="20" r="5" fill="white"/>
        <circle cx="5" cy="35" r="5" fill="white"/>
        <circle cx="5" cy="35" r="5" fill="white"/>
        <circle cx="5" cy="35" r="5" fill="white"/>
        <circle cx="5" cy="65" r="5" fill="white"/>
        <circle cx="5" cy="5" r="5" fill="white"/>
        <circle cx="5" cy="20" r="5" fill="white"/>
        <circle cx="5" cy="20" r="5" fill="white"/>
        <circle cx="5" cy="20" r="5" fill="white"/>
        <circle cx="5" cy="35" r="5" fill="white"/>
        <circle cx="5" cy="35" r="5" fill="white"/>
        <circle cx="5" cy="35" r="5" fill="white"/>
        <circle cx="5" cy="50" r="5" fill="white"/>
        <circle cx="5" cy="50" r="5" fill="white"/>
        <circle cx="5" cy="50" r="5" fill="white"/>
        <circle cx="5" cy="20" r="5" fill="white"/>
        <circle cx="5" cy="20" r="5" fill="white"/>
        <circle cx="5" cy="20" r="5" fill="white"/>
        <circle cx="5" cy="35" r="5" fill="white"/>
        <circle cx="5" cy="35" r="5" fill="white"/>
        <circle cx="5" cy="35" r="5" fill="white"/>
        <circle cx="5" cy="50" r="5" fill="white"/>
        <circle cx="5" cy="50" r="5" fill="white"/>
        <circle cx="5" cy="50" r="5" fill="white"/>
        <circle cx="5" cy="65" r="5" fill="white"/>
        <circle cx="5" cy="35" r="5" fill="white"/>
        <circle cx="5" cy="35" r="5" fill="white"/>
        <circle cx="5" cy="35" r="5" fill="white"/>
        <circle cx="5" cy="50" r="5" fill="white"/>
        <circle cx="5" cy="50" r="5" fill="white"/>
        <circle cx="5" cy="50" r="5" fill="white"/>
        <circle cx="5" cy="65" r="5" fill="white"/>
        <circle cx="20" cy="35" r="1.5" stroke="#0E0E15"/>
        <circle cx="20" cy="50" r="1.5" stroke="#0E0E15"/>
        <circle cx="35" cy="35" r="1.5" stroke="#0E0E15"/>
        <circle cx="35" cy="50" r="1.5" stroke="#0E0E15"/>
        <circle cx="35" cy="65" r="1.5" stroke="#0E0E15"/>
        <circle cx="35" cy="65" r="1.5" stroke="#0E0E15"/>
        <circle cx="35" cy="65" r="1.5" stroke="#0E0E15"/>
        <circle cx="50" cy="35" r="5" fill="white"/>
        <circle cx="50" cy="50" r="5" fill="white"/>
        <circle cx="50" cy="65" r="5" fill="white"/>
        <circle cx="50" cy="65" r="5" fill="white"/>
        <circle cx="50" cy="65" r="5" fill="white"/>
        <circle cx="65" cy="35" r="1.5" stroke="#0E0E15"/>
        <circle cx="65" cy="50" r="1.5" stroke="#0E0E15"/>
        <circle cx="65" cy="65" r="1.5" stroke="#0E0E15"/>
        <circle cx="80" cy="35" r="5" fill="white"/>
        <circle cx="80" cy="35" r="5" fill="white"/>
        <circle cx="80" cy="35" r="5" fill="white"/>
        <circle cx="80" cy="50" r="5" fill="white"/>
        <circle cx="80" cy="50" r="5" fill="white"/>
        <circle cx="80" cy="50" r="5" fill="white"/>
        <circle cx="80" cy="65" r="5" fill="white"/>
        <circle cx="80" cy="65" r="5" fill="white"/>
        <circle cx="80" cy="65" r="5" fill="white"/>
        <circle cx="95" cy="35" r="1.5" stroke="#0E0E15"/>
        <circle cx="95" cy="35" r="1.5" stroke="#0E0E15"/>
        <circle cx="95" cy="35" r="1.5" stroke="#0E0E15"/>
        <circle cx="95" cy="50" r="5" fill="white"/>
        <circle cx="95" cy="50" r="5" fill="white"/>
        <circle cx="95" cy="50" r="5" fill="white"/>
        <circle cx="95" cy="65" r="1.5" stroke="#0E0E15"/>
        <circle cx="95" cy="65" r="1.5" stroke="#0E0E15"/>
        <circle cx="95" cy="65" r="1.5" stroke="#0E0E15"/>
        <circle cx="110" cy="35" r="1.5" stroke="#0E0E15"/>
        <circle cx="110" cy="35" r="1.5" stroke="#0E0E15"/>
        <circle cx="110" cy="35" r="1.5" stroke="#0E0E15"/>
        <circle cx="110" cy="50" r="5" fill="white"/>
        <circle cx="110" cy="50" r="5" fill="white"/>
        <circle cx="110" cy="50" r="5" fill="white"/>
        <circle cx="110" cy="65" r="1.5" stroke="#0E0E15"/>
        <circle cx="110" cy="65" r="1.5" stroke="#0E0E15"/>
        <circle cx="110" cy="65" r="1.5" stroke="#0E0E15"/>
        <circle cx="125" cy="65" r="1.5" stroke="#0E0E15"/>
        <circle cx="125" cy="65" r="1.5" stroke="#0E0E15"/>
        <circle cx="125" cy="65" r="1.5" stroke="#0E0E15"/>
        <circle cx="140" cy="65" r="1.5" stroke="#0E0E15"/>
        <circle cx="140" cy="65" r="1.5" stroke="#0E0E15"/>
        <circle cx="140" cy="65" r="1.5" stroke="#0E0E15"/>
        <circle cx="155" cy="65" r="1.5" stroke="#0E0E15"/>
        <circle cx="155" cy="65" r="1.5" stroke="#0E0E15"/>
        <circle cx="155" cy="65" r="1.5" stroke="#0E0E15"/>
        <circle cx="275" cy="65" r="5" fill="white"/>
        <circle cx="275" cy="65" r="5" fill="white"/>
        <circle cx="275" cy="65" r="5" fill="white"/>
        <circle cx="170" cy="65" r="5" fill="white"/>
        <circle cx="170" cy="65" r="5" fill="white"/>
        <circle cx="170" cy="65" r="5" fill="white"/>
        <circle cx="185" cy="65" r="5" fill="white"/>
        <circle cx="185" cy="65" r="5" fill="white"/>
        <circle cx="185" cy="65" r="5" fill="white"/>
        <circle cx="290" cy="65" r="1.5" stroke="#0E0E15"/>
        <circle cx="290" cy="65" r="1.5" stroke="#0E0E15"/>
        <circle cx="290" cy="65" r="1.5" stroke="#0E0E15"/>
        <circle cx="200" cy="65" r="1.5" stroke="#0E0E15"/>
        <circle cx="200" cy="65" r="1.5" stroke="#0E0E15"/>
        <circle cx="200" cy="65" r="1.5" stroke="#0E0E15"/>
        <circle cx="305" cy="65" r="1.5" stroke="#0E0E15"/>
        <circle cx="305" cy="65" r="1.5" stroke="#0E0E15"/>
        <circle cx="305" cy="65" r="1.5" stroke="#0E0E15"/>
        <circle cx="215" cy="65" r="1.5" stroke="#0E0E15"/>
        <circle cx="215" cy="65" r="1.5" stroke="#0E0E15"/>
        <circle cx="215" cy="65" r="1.5" stroke="#0E0E15"/>
        <circle cx="320" cy="65" r="1.5" stroke="#0E0E15"/>
        <circle cx="320" cy="65" r="1.5" stroke="#0E0E15"/>
        <circle cx="320" cy="65" r="1.5" stroke="#0E0E15"/>
        <circle cx="230" cy="65" r="1.5" stroke="#0E0E15"/>
        <circle cx="230" cy="65" r="1.5" stroke="#0E0E15"/>
        <circle cx="230" cy="65" r="1.5" stroke="#0E0E15"/>
        <circle cx="335" cy="65" r="1.5" stroke="#0E0E15"/>
        <circle cx="335" cy="65" r="1.5" stroke="#0E0E15"/>
        <circle cx="335" cy="65" r="1.5" stroke="#0E0E15"/>
        <circle cx="245" cy="65" r="1.5" stroke="#0E0E15"/>
        <circle cx="245" cy="65" r="1.5" stroke="#0E0E15"/>
        <circle cx="245" cy="65" r="1.5" stroke="#0E0E15"/>
        <circle cx="350" cy="65" r="5" fill="white"/>
        <circle cx="350" cy="65" r="5" fill="white"/>
        <circle cx="350" cy="65" r="5" fill="white"/>
        <circle cx="380" cy="65" r="1.5" stroke="#0E0E15"/>
        <circle cx="380" cy="65" r="1.5" stroke="#0E0E15"/>
        <circle cx="380" cy="65" r="1.5" stroke="#0E0E15"/>
        <circle cx="260" cy="65" r="1.5" stroke="#0E0E15"/>
        <circle cx="260" cy="65" r="1.5" stroke="#0E0E15"/>
        <circle cx="260" cy="65" r="1.5" stroke="#0E0E15"/>
        <circle cx="365" cy="65" r="1.5" stroke="#0E0E15"/>
        <circle cx="365" cy="65" r="1.5" stroke="#0E0E15"/>
        <circle cx="365" cy="65" r="1.5" stroke="#0E0E15"/>
        <circle cx="395" cy="65" r="1.5" stroke="#0E0E15"/>
        <circle cx="395" cy="65" r="1.5" stroke="#0E0E15"/>
        <circle cx="395" cy="65" r="1.5" stroke="#0E0E15"/>
        <circle cx="410" cy="65" r="5" fill="white"/>
        <circle cx="410" cy="65" r="5" fill="white"/>
        <circle cx="410" cy="65" r="5" fill="white"/>
        <circle cx="425" cy="65" r="1.5" stroke="#0E0E15"/>
        <circle cx="425" cy="65" r="1.5" stroke="#0E0E15"/>
        <circle cx="425" cy="65" r="1.5" stroke="#0E0E15"/>
        <circle cx="440" cy="65" r="5" fill="white"/>
        <circle cx="440" cy="65" r="5" fill="white"/>
        <circle cx="440" cy="65" r="5" fill="white"/>
        <circle cx="455" cy="65" r="1.5" stroke="#0E0E15"/>
        <circle cx="455" cy="65" r="1.5" stroke="#0E0E15"/>
        <circle cx="455" cy="65" r="1.5" stroke="#0E0E15"/>
        <circle cx="470" cy="65" r="1.5" stroke="#0E0E15"/>
        <circle cx="470" cy="65" r="1.5" stroke="#0E0E15"/>
        <circle cx="470" cy="65" r="1.5" stroke="#0E0E15"/>
        <circle cx="485" cy="65" r="5" fill="white"/>
        <circle cx="485" cy="65" r="5" fill="white"/>
        <circle cx="485" cy="65" r="5" fill="white"/>
        <circle cx="500" cy="65" r="1.5" stroke="#0E0E15"/>
        <circle cx="500" cy="65" r="1.5" stroke="#0E0E15"/>
        <circle cx="500" cy="65" r="1.5" stroke="#0E0E15"/>
        <circle cx="515" cy="65" r="5" fill="white"/>
        <circle cx="515" cy="65" r="5" fill="white"/>
        <circle cx="515" cy="65" r="5" fill="white"/>
        <circle cx="530" cy="65" r="5" fill="white"/>
        <circle cx="530" cy="65" r="5" fill="white"/>
        <circle cx="530" cy="65" r="5" fill="white"/>
        <circle cx="545" cy="65" r="5" fill="white"/>
        <circle cx="545" cy="65" r="5" fill="white"/>
        <circle cx="545" cy="65" r="5" fill="white"/>
        <circle cx="560" cy="65" r="1.5" stroke="#0E0E15"/>
        <circle cx="560" cy="65" r="1.5" stroke="#0E0E15"/>
        <circle cx="560" cy="65" r="1.5" stroke="#0E0E15"/>
        <circle cx="20" cy="35" r="1.5" stroke="#0E0E15"/>
        <circle cx="20" cy="5" r="5" fill="white"/>
        <circle cx="20" cy="5" r="5" fill="white"/>
        <circle cx="20" cy="5" r="5" fill="white"/>
        <circle cx="20" cy="20" r="1.5" stroke="#0E0E15"/>
        <circle cx="20" cy="50" r="1.5" stroke="#0E0E15"/>
        <circle cx="20" cy="5" r="5" fill="white"/>
        <circle cx="20" cy="5" r="5" fill="white"/>
        <circle cx="20" cy="5" r="5" fill="white"/>
        <circle cx="20" cy="20" r="1.5" stroke="#0E0E15"/>
        <circle cx="20" cy="35" r="1.5" stroke="#0E0E15"/>
        <circle cx="20" cy="5" r="5" fill="white"/>
        <circle cx="20" cy="5" r="5" fill="white"/>
        <circle cx="20" cy="5" r="5" fill="white"/>
        <circle cx="20" cy="20" r="1.5" stroke="#0E0E15"/>
        <circle cx="20" cy="35" r="1.5" stroke="#0E0E15"/>
        <circle cx="20" cy="50" r="1.5" stroke="#0E0E15"/>
        <circle cx="20" cy="20" r="1.5" stroke="#0E0E15"/>
        <circle cx="20" cy="35" r="1.5" stroke="#0E0E15"/>
        <circle cx="20" cy="50" r="1.5" stroke="#0E0E15"/>
        <circle cx="20" cy="65" r="1.5" stroke="#0E0E15"/>
        <circle cx="20" cy="65" r="1.5" stroke="#0E0E15"/>
        <circle cx="20" cy="65" r="1.5" stroke="#0E0E15"/>
        <circle cx="35" cy="35" r="1.5" stroke="#0E0E15"/>
        <circle cx="35" cy="5" r="5" fill="white"/>
        <circle cx="35" cy="5" r="5" fill="white"/>
        <circle cx="35" cy="5" r="5" fill="white"/>
        <circle cx="35" cy="20" r="1.5" stroke="#0E0E15"/>
        <circle cx="35" cy="50" r="1.5" stroke="#0E0E15"/>
        <circle cx="35" cy="5" r="5" fill="white"/>
        <circle cx="35" cy="5" r="5" fill="white"/>
        <circle cx="35" cy="5" r="5" fill="white"/>
        <circle cx="35" cy="20" r="1.5" stroke="#0E0E15"/>
        <circle cx="35" cy="35" r="1.5" stroke="#0E0E15"/>
        <circle cx="35" cy="65" r="1.5" stroke="#0E0E15"/>
        <circle cx="35" cy="65" r="1.5" stroke="#0E0E15"/>
        <circle cx="35" cy="65" r="1.5" stroke="#0E0E15"/>
        <circle cx="35" cy="5" r="5" fill="white"/>
        <circle cx="35" cy="5" r="5" fill="white"/>
        <circle cx="35" cy="5" r="5" fill="white"/>
        <circle cx="35" cy="20" r="1.5" stroke="#0E0E15"/>
        <circle cx="35" cy="35" r="1.5" stroke="#0E0E15"/>
        <circle cx="35" cy="50" r="1.5" stroke="#0E0E15"/>
        <circle cx="35" cy="20" r="1.5" stroke="#0E0E15"/>
        <circle cx="35" cy="35" r="1.5" stroke="#0E0E15"/>
        <circle cx="35" cy="50" r="1.5" stroke="#0E0E15"/>
        <circle cx="35" cy="65" r="1.5" stroke="#0E0E15"/>
        <circle cx="35" cy="65" r="1.5" stroke="#0E0E15"/>
        <circle cx="35" cy="65" r="1.5" stroke="#0E0E15"/>
        <circle cx="50" cy="35" r="5" fill="white"/>
        <circle cx="50" cy="5" r="5" fill="white"/>
        <circle cx="50" cy="5" r="5" fill="white"/>
        <circle cx="50" cy="5" r="5" fill="white"/>
        <circle cx="50" cy="20" r="5" fill="white"/>
        <circle cx="50" cy="50" r="5" fill="white"/>
        <circle cx="50" cy="5" r="5" fill="white"/>
        <circle cx="50" cy="5" r="5" fill="white"/>
        <circle cx="50" cy="5" r="5" fill="white"/>
        <circle cx="50" cy="20" r="5" fill="white"/>
        <circle cx="50" cy="35" r="5" fill="white"/>
        <circle cx="50" cy="20" r="5" fill="white"/>
        <circle cx="50" cy="35" r="5" fill="white"/>
        <circle cx="50" cy="50" r="5" fill="white"/>
        <circle cx="50" cy="65" r="5" fill="white"/>
        <circle cx="50" cy="65" r="5" fill="white"/>
        <circle cx="50" cy="65" r="5" fill="white"/>
        <circle cx="50" cy="65" r="5" fill="white"/>
        <circle cx="50" cy="65" r="5" fill="white"/>
        <circle cx="50" cy="65" r="5" fill="white"/>
        <circle cx="50" cy="5" r="5" fill="white"/>
        <circle cx="50" cy="5" r="5" fill="white"/>
        <circle cx="50" cy="5" r="5" fill="white"/>
        <circle cx="50" cy="20" r="5" fill="white"/>
        <circle cx="50" cy="35" r="5" fill="white"/>
        <circle cx="50" cy="50" r="5" fill="white"/>
        <circle cx="65" cy="35" r="1.5" stroke="#0E0E15"/>
        <circle cx="65" cy="5" r="1.5" stroke="#0E0E15"/>
        <circle cx="65" cy="20" r="1.5" stroke="#0E0E15"/>
        <circle cx="65" cy="65" r="1.5" stroke="#0E0E15"/>
        <circle cx="65" cy="5" r="1.5" stroke="#0E0E15"/>
        <circle cx="65" cy="20" r="1.5" stroke="#0E0E15"/>
        <circle cx="65" cy="35" r="1.5" stroke="#0E0E15"/>
        <circle cx="65" cy="50" r="1.5" stroke="#0E0E15"/>
        <circle cx="65" cy="50" r="1.5" stroke="#0E0E15"/>
        <circle cx="65" cy="5" r="1.5" stroke="#0E0E15"/>
        <circle cx="65" cy="20" r="1.5" stroke="#0E0E15"/>
        <circle cx="65" cy="35" r="1.5" stroke="#0E0E15"/>
        <circle cx="65" cy="20" r="1.5" stroke="#0E0E15"/>
        <circle cx="65" cy="35" r="1.5" stroke="#0E0E15"/>
        <circle cx="65" cy="50" r="1.5" stroke="#0E0E15"/>
        <circle cx="65" cy="65" r="1.5" stroke="#0E0E15"/>
        <circle cx="80" cy="35" r="5" fill="white"/>
        <circle cx="80" cy="35" r="5" fill="white"/>
        <circle cx="80" cy="35" r="5" fill="white"/>
        <circle cx="80" cy="5" r="5" fill="white"/>
        <circle cx="80" cy="5" r="5" fill="white"/>
        <circle cx="80" cy="5" r="5" fill="white"/>
        <circle cx="80" cy="20" r="5" fill="white"/>
        <circle cx="80" cy="20" r="5" fill="white"/>
        <circle cx="80" cy="20" r="5" fill="white"/>
        <circle cx="80" cy="50" r="5" fill="white"/>
        <circle cx="80" cy="50" r="5" fill="white"/>
        <circle cx="80" cy="50" r="5" fill="white"/>
        <circle cx="80" cy="5" r="5" fill="white"/>
        <circle cx="80" cy="5" r="5" fill="white"/>
        <circle cx="80" cy="5" r="5" fill="white"/>
        <circle cx="80" cy="20" r="5" fill="white"/>
        <circle cx="80" cy="20" r="5" fill="white"/>
        <circle cx="80" cy="20" r="5" fill="white"/>
        <circle cx="80" cy="35" r="5" fill="white"/>
        <circle cx="80" cy="35" r="5" fill="white"/>
        <circle cx="80" cy="35" r="5" fill="white"/>
        <circle cx="80" cy="65" r="5" fill="white"/>
        <circle cx="80" cy="65" r="5" fill="white"/>
        <circle cx="80" cy="65" r="5" fill="white"/>
        <circle cx="80" cy="5" r="5" fill="white"/>
        <circle cx="80" cy="5" r="5" fill="white"/>
        <circle cx="80" cy="5" r="5" fill="white"/>
        <circle cx="80" cy="20" r="5" fill="white"/>
        <circle cx="80" cy="20" r="5" fill="white"/>
        <circle cx="80" cy="20" r="5" fill="white"/>
        <circle cx="80" cy="35" r="5" fill="white"/>
        <circle cx="80" cy="35" r="5" fill="white"/>
        <circle cx="80" cy="35" r="5" fill="white"/>
        <circle cx="80" cy="50" r="5" fill="white"/>
        <circle cx="80" cy="50" r="5" fill="white"/>
        <circle cx="80" cy="50" r="5" fill="white"/>
        <circle cx="80" cy="20" r="5" fill="white"/>
        <circle cx="80" cy="20" r="5" fill="white"/>
        <circle cx="80" cy="20" r="5" fill="white"/>
        <circle cx="80" cy="35" r="5" fill="white"/>
        <circle cx="80" cy="35" r="5" fill="white"/>
        <circle cx="80" cy="35" r="5" fill="white"/>
        <circle cx="80" cy="50" r="5" fill="white"/>
        <circle cx="80" cy="50" r="5" fill="white"/>
        <circle cx="80" cy="50" r="5" fill="white"/>
        <circle cx="80" cy="65" r="5" fill="white"/>
        <circle cx="80" cy="65" r="5" fill="white"/>
        <circle cx="80" cy="65" r="5" fill="white"/>
        <circle cx="95" cy="35" r="1.5" stroke="#0E0E15"/>
        <circle cx="95" cy="35" r="1.5" stroke="#0E0E15"/>
        <circle cx="95" cy="35" r="1.5" stroke="#0E0E15"/>
        <circle cx="95" cy="5" r="5" fill="white"/>
        <circle cx="95" cy="5" r="5" fill="white"/>
        <circle cx="95" cy="5" r="5" fill="white"/>
        <circle cx="95" cy="20" r="1.5" stroke="#0E0E15"/>
        <circle cx="95" cy="20" r="1.5" stroke="#0E0E15"/>
        <circle cx="95" cy="20" r="1.5" stroke="#0E0E15"/>
        <circle cx="95" cy="50" r="5" fill="white"/>
        <circle cx="95" cy="50" r="5" fill="white"/>
        <circle cx="95" cy="50" r="5" fill="white"/>
        <circle cx="95" cy="5" r="5" fill="white"/>
        <circle cx="95" cy="5" r="5" fill="white"/>
        <circle cx="95" cy="5" r="5" fill="white"/>
        <circle cx="95" cy="20" r="1.5" stroke="#0E0E15"/>
        <circle cx="95" cy="20" r="1.5" stroke="#0E0E15"/>
        <circle cx="95" cy="20" r="1.5" stroke="#0E0E15"/>
        <circle cx="95" cy="35" r="1.5" stroke="#0E0E15"/>
        <circle cx="95" cy="35" r="1.5" stroke="#0E0E15"/>
        <circle cx="95" cy="35" r="1.5" stroke="#0E0E15"/>
        <circle cx="95" cy="65" r="1.5" stroke="#0E0E15"/>
        <circle cx="95" cy="65" r="1.5" stroke="#0E0E15"/>
        <circle cx="95" cy="65" r="1.5" stroke="#0E0E15"/>
        <circle cx="95" cy="5" r="5" fill="white"/>
        <circle cx="95" cy="5" r="5" fill="white"/>
        <circle cx="95" cy="5" r="5" fill="white"/>
        <circle cx="95" cy="20" r="1.5" stroke="#0E0E15"/>
        <circle cx="95" cy="20" r="1.5" stroke="#0E0E15"/>
        <circle cx="95" cy="20" r="1.5" stroke="#0E0E15"/>
        <circle cx="95" cy="35" r="1.5" stroke="#0E0E15"/>
        <circle cx="95" cy="35" r="1.5" stroke="#0E0E15"/>
        <circle cx="95" cy="35" r="1.5" stroke="#0E0E15"/>
        <circle cx="95" cy="50" r="5" fill="white"/>
        <circle cx="95" cy="50" r="5" fill="white"/>
        <circle cx="95" cy="50" r="5" fill="white"/>
        <circle cx="95" cy="20" r="1.5" stroke="#0E0E15"/>
        <circle cx="95" cy="20" r="1.5" stroke="#0E0E15"/>
        <circle cx="95" cy="20" r="1.5" stroke="#0E0E15"/>
        <circle cx="95" cy="35" r="1.5" stroke="#0E0E15"/>
        <circle cx="95" cy="35" r="1.5" stroke="#0E0E15"/>
        <circle cx="95" cy="35" r="1.5" stroke="#0E0E15"/>
        <circle cx="95" cy="50" r="5" fill="white"/>
        <circle cx="95" cy="50" r="5" fill="white"/>
        <circle cx="95" cy="50" r="5" fill="white"/>
        <circle cx="95" cy="65" r="1.5" stroke="#0E0E15"/>
        <circle cx="95" cy="65" r="1.5" stroke="#0E0E15"/>
        <circle cx="95" cy="65" r="1.5" stroke="#0E0E15"/>
        <circle cx="110" cy="35" r="1.5" stroke="#0E0E15"/>
        <circle cx="110" cy="35" r="1.5" stroke="#0E0E15"/>
        <circle cx="110" cy="35" r="1.5" stroke="#0E0E15"/>
        <circle cx="110" cy="5" r="5" fill="white"/>
        <circle cx="110" cy="5" r="5" fill="white"/>
        <circle cx="110" cy="5" r="5" fill="white"/>
        <circle cx="110" cy="20" r="1.5" stroke="#0E0E15"/>
        <circle cx="110" cy="20" r="1.5" stroke="#0E0E15"/>
        <circle cx="110" cy="20" r="1.5" stroke="#0E0E15"/>
        <circle cx="110" cy="50" r="5" fill="white"/>
        <circle cx="110" cy="50" r="5" fill="white"/>
        <circle cx="110" cy="50" r="5" fill="white"/>
        <circle cx="110" cy="5" r="5" fill="white"/>
        <circle cx="110" cy="5" r="5" fill="white"/>
        <circle cx="110" cy="5" r="5" fill="white"/>
        <circle cx="110" cy="20" r="1.5" stroke="#0E0E15"/>
        <circle cx="110" cy="20" r="1.5" stroke="#0E0E15"/>
        <circle cx="110" cy="20" r="1.5" stroke="#0E0E15"/>
        <circle cx="110" cy="35" r="1.5" stroke="#0E0E15"/>
        <circle cx="110" cy="35" r="1.5" stroke="#0E0E15"/>
        <circle cx="110" cy="35" r="1.5" stroke="#0E0E15"/>
        <circle cx="110" cy="65" r="1.5" stroke="#0E0E15"/>
        <circle cx="110" cy="65" r="1.5" stroke="#0E0E15"/>
        <circle cx="110" cy="65" r="1.5" stroke="#0E0E15"/>
        <circle cx="110" cy="5" r="5" fill="white"/>
        <circle cx="110" cy="5" r="5" fill="white"/>
        <circle cx="110" cy="5" r="5" fill="white"/>
        <circle cx="110" cy="20" r="1.5" stroke="#0E0E15"/>
        <circle cx="110" cy="20" r="1.5" stroke="#0E0E15"/>
        <circle cx="110" cy="20" r="1.5" stroke="#0E0E15"/>
        <circle cx="110" cy="35" r="1.5" stroke="#0E0E15"/>
        <circle cx="110" cy="35" r="1.5" stroke="#0E0E15"/>
        <circle cx="110" cy="35" r="1.5" stroke="#0E0E15"/>
        <circle cx="110" cy="50" r="5" fill="white"/>
        <circle cx="110" cy="50" r="5" fill="white"/>
        <circle cx="110" cy="50" r="5" fill="white"/>
        <circle cx="110" cy="20" r="1.5" stroke="#0E0E15"/>
        <circle cx="110" cy="20" r="1.5" stroke="#0E0E15"/>
        <circle cx="110" cy="20" r="1.5" stroke="#0E0E15"/>
        <circle cx="110" cy="35" r="1.5" stroke="#0E0E15"/>
        <circle cx="110" cy="35" r="1.5" stroke="#0E0E15"/>
        <circle cx="110" cy="35" r="1.5" stroke="#0E0E15"/>
        <circle cx="110" cy="50" r="5" fill="white"/>
        <circle cx="110" cy="50" r="5" fill="white"/>
        <circle cx="110" cy="50" r="5" fill="white"/>
        <circle cx="110" cy="65" r="1.5" stroke="#0E0E15"/>
        <circle cx="110" cy="65" r="1.5" stroke="#0E0E15"/>
        <circle cx="110" cy="65" r="1.5" stroke="#0E0E15"/>
        <circle cx="125" cy="5" r="1.5" stroke="#0E0E15"/>
        <circle cx="125" cy="5" r="1.5" stroke="#0E0E15"/>
        <circle cx="125" cy="5" r="1.5" stroke="#0E0E15"/>
        <circle cx="125" cy="20" r="5" fill="white"/>
        <circle cx="125" cy="20" r="5" fill="white"/>
        <circle cx="125" cy="20" r="5" fill="white"/>
        <circle cx="125" cy="35" r="5" fill="white"/>
        <circle cx="125" cy="35" r="5" fill="white"/>
        <circle cx="125" cy="35" r="5" fill="white"/>
        <circle cx="125" cy="50" r="1.5" stroke="#0E0E15"/>
        <circle cx="125" cy="50" r="1.5" stroke="#0E0E15"/>
        <circle cx="125" cy="50" r="1.5" stroke="#0E0E15"/>
        <circle cx="140" cy="5" r="1.5" stroke="#0E0E15"/>
        <circle cx="140" cy="5" r="1.5" stroke="#0E0E15"/>
        <circle cx="140" cy="5" r="1.5" stroke="#0E0E15"/>
        <circle cx="140" cy="20" r="1.5" stroke="#0E0E15"/>
        <circle cx="140" cy="20" r="1.5" stroke="#0E0E15"/>
        <circle cx="140" cy="20" r="1.5" stroke="#0E0E15"/>
        <circle cx="140" cy="35" r="1.5" stroke="#0E0E15"/>
        <circle cx="140" cy="35" r="1.5" stroke="#0E0E15"/>
        <circle cx="140" cy="35" r="1.5" stroke="#0E0E15"/>
        <circle cx="140" cy="50" r="1.5" stroke="#0E0E15"/>
        <circle cx="140" cy="50" r="1.5" stroke="#0E0E15"/>
        <circle cx="140" cy="50" r="1.5" stroke="#0E0E15"/>
        <circle cx="155" cy="5" r="1.5" stroke="#0E0E15"/>
        <circle cx="155" cy="5" r="1.5" stroke="#0E0E15"/>
        <circle cx="155" cy="5" r="1.5" stroke="#0E0E15"/>
        <circle cx="275" cy="5" r="5" fill="white"/>
        <circle cx="275" cy="5" r="5" fill="white"/>
        <circle cx="275" cy="5" r="5" fill="white"/>
        <circle cx="155" cy="20" r="5" fill="white"/>
        <circle cx="155" cy="20" r="5" fill="white"/>
        <circle cx="155" cy="20" r="5" fill="white"/>
        <circle cx="275" cy="20" r="5" fill="white"/>
        <circle cx="275" cy="20" r="5" fill="white"/>
        <circle cx="275" cy="20" r="5" fill="white"/>
        <circle cx="155" cy="35" r="5" fill="white"/>
        <circle cx="155" cy="35" r="5" fill="white"/>
        <circle cx="155" cy="35" r="5" fill="white"/>
        <circle cx="275" cy="35" r="5" fill="white"/>
        <circle cx="275" cy="35" r="5" fill="white"/>
        <circle cx="275" cy="35" r="5" fill="white"/>
        <circle cx="155" cy="50" r="5" fill="white"/>
        <circle cx="155" cy="50" r="5" fill="white"/>
        <circle cx="155" cy="50" r="5" fill="white"/>
        <circle cx="275" cy="50" r="5" fill="white"/>
        <circle cx="275" cy="50" r="5" fill="white"/>
        <circle cx="275" cy="50" r="5" fill="white"/>
        <circle cx="170" cy="5" r="5" fill="white"/>
        <circle cx="170" cy="5" r="5" fill="white"/>
        <circle cx="170" cy="5" r="5" fill="white"/>
        <circle cx="170" cy="20" r="1.5" stroke="#0E0E15"/>
        <circle cx="170" cy="20" r="1.5" stroke="#0E0E15"/>
        <circle cx="170" cy="20" r="1.5" stroke="#0E0E15"/>
        <circle cx="170" cy="35" r="1.5" stroke="#0E0E15"/>
        <circle cx="170" cy="35" r="1.5" stroke="#0E0E15"/>
        <circle cx="170" cy="35" r="1.5" stroke="#0E0E15"/>
        <circle cx="170" cy="50" r="1.5" stroke="#0E0E15"/>
        <circle cx="170" cy="50" r="1.5" stroke="#0E0E15"/>
        <circle cx="170" cy="50" r="1.5" stroke="#0E0E15"/>
        <circle cx="185" cy="5" r="5" fill="white"/>
        <circle cx="185" cy="5" r="5" fill="white"/>
        <circle cx="185" cy="5" r="5" fill="white"/>
        <circle cx="290" cy="5" r="5" fill="white"/>
        <circle cx="290" cy="5" r="5" fill="white"/>
        <circle cx="290" cy="5" r="5" fill="white"/>
        <circle cx="185" cy="20" r="1.5" stroke="#0E0E15"/>
        <circle cx="185" cy="20" r="1.5" stroke="#0E0E15"/>
        <circle cx="185" cy="20" r="1.5" stroke="#0E0E15"/>
        <circle cx="290" cy="20" r="1.5" stroke="#0E0E15"/>
        <circle cx="290" cy="20" r="1.5" stroke="#0E0E15"/>
        <circle cx="290" cy="20" r="1.5" stroke="#0E0E15"/>
        <circle cx="185" cy="35" r="1.5" stroke="#0E0E15"/>
        <circle cx="185" cy="35" r="1.5" stroke="#0E0E15"/>
        <circle cx="185" cy="35" r="1.5" stroke="#0E0E15"/>
        <circle cx="290" cy="35" r="1.5" stroke="#0E0E15"/>
        <circle cx="290" cy="35" r="1.5" stroke="#0E0E15"/>
        <circle cx="290" cy="35" r="1.5" stroke="#0E0E15"/>
        <circle cx="185" cy="50" r="1.5" stroke="#0E0E15"/>
        <circle cx="185" cy="50" r="1.5" stroke="#0E0E15"/>
        <circle cx="185" cy="50" r="1.5" stroke="#0E0E15"/>
        <circle cx="290" cy="50" r="5" fill="white"/>
        <circle cx="290" cy="50" r="5" fill="white"/>
        <circle cx="290" cy="50" r="5" fill="white"/>
        <circle cx="200" cy="5" r="1.5" stroke="#0E0E15"/>
        <circle cx="200" cy="5" r="1.5" stroke="#0E0E15"/>
        <circle cx="200" cy="5" r="1.5" stroke="#0E0E15"/>
        <circle cx="305" cy="5" r="5" fill="white"/>
        <circle cx="305" cy="5" r="5" fill="white"/>
        <circle cx="305" cy="5" r="5" fill="white"/>
        <circle cx="200" cy="20" r="5" fill="white"/>
        <circle cx="200" cy="20" r="5" fill="white"/>
        <circle cx="200" cy="20" r="5" fill="white"/>
        <circle cx="305" cy="20" r="1.5" stroke="#0E0E15"/>
        <circle cx="305" cy="20" r="1.5" stroke="#0E0E15"/>
        <circle cx="305" cy="20" r="1.5" stroke="#0E0E15"/>
        <circle cx="200" cy="35" r="5" fill="white"/>
        <circle cx="200" cy="35" r="5" fill="white"/>
        <circle cx="200" cy="35" r="5" fill="white"/>
        <circle cx="305" cy="35" r="1.5" stroke="#0E0E15"/>
        <circle cx="305" cy="35" r="1.5" stroke="#0E0E15"/>
        <circle cx="305" cy="35" r="1.5" stroke="#0E0E15"/>
        <circle cx="200" cy="50" r="5" fill="white"/>
        <circle cx="200" cy="50" r="5" fill="white"/>
        <circle cx="200" cy="50" r="5" fill="white"/>
        <circle cx="305" cy="50" r="5" fill="white"/>
        <circle cx="305" cy="50" r="5" fill="white"/>
        <circle cx="305" cy="50" r="5" fill="white"/>
        <circle cx="215" cy="5" r="1.5" stroke="#0E0E15"/>
        <circle cx="215" cy="5" r="1.5" stroke="#0E0E15"/>
        <circle cx="215" cy="5" r="1.5" stroke="#0E0E15"/>
        <circle cx="320" cy="5" r="1.5" stroke="#0E0E15"/>
        <circle cx="320" cy="5" r="1.5" stroke="#0E0E15"/>
        <circle cx="320" cy="5" r="1.5" stroke="#0E0E15"/>
        <circle cx="215" cy="20" r="1.5" stroke="#0E0E15"/>
        <circle cx="215" cy="20" r="1.5" stroke="#0E0E15"/>
        <circle cx="215" cy="20" r="1.5" stroke="#0E0E15"/>
        <circle cx="320" cy="20" r="5" fill="white"/>
        <circle cx="320" cy="20" r="5" fill="white"/>
        <circle cx="320" cy="20" r="5" fill="white"/>
        <circle cx="215" cy="35" r="1.5" stroke="#0E0E15"/>
        <circle cx="215" cy="35" r="1.5" stroke="#0E0E15"/>
        <circle cx="215" cy="35" r="1.5" stroke="#0E0E15"/>
        <circle cx="320" cy="35" r="5" fill="white"/>
        <circle cx="320" cy="35" r="5" fill="white"/>
        <circle cx="320" cy="35" r="5" fill="white"/>
        <circle cx="215" cy="50" r="1.5" stroke="#0E0E15"/>
        <circle cx="215" cy="50" r="1.5" stroke="#0E0E15"/>
        <circle cx="215" cy="50" r="1.5" stroke="#0E0E15"/>
        <circle cx="320" cy="50" r="1.5" stroke="#0E0E15"/>
        <circle cx="320" cy="50" r="1.5" stroke="#0E0E15"/>
        <circle cx="320" cy="50" r="1.5" stroke="#0E0E15"/>
        <circle cx="230" cy="5" r="1.5" stroke="#0E0E15"/>
        <circle cx="230" cy="5" r="1.5" stroke="#0E0E15"/>
        <circle cx="230" cy="5" r="1.5" stroke="#0E0E15"/>
        <circle cx="335" cy="5" r="1.5" stroke="#0E0E15"/>
        <circle cx="335" cy="5" r="1.5" stroke="#0E0E15"/>
        <circle cx="335" cy="5" r="1.5" stroke="#0E0E15"/>
        <circle cx="230" cy="20" r="5" fill="white"/>
        <circle cx="230" cy="20" r="5" fill="white"/>
        <circle cx="230" cy="20" r="5" fill="white"/>
        <circle cx="335" cy="20" r="1.5" stroke="#0E0E15"/>
        <circle cx="335" cy="20" r="1.5" stroke="#0E0E15"/>
        <circle cx="335" cy="20" r="1.5" stroke="#0E0E15"/>
        <circle cx="230" cy="35" r="5" fill="white"/>
        <circle cx="230" cy="35" r="5" fill="white"/>
        <circle cx="230" cy="35" r="5" fill="white"/>
        <circle cx="335" cy="35" r="1.5" stroke="#0E0E15"/>
        <circle cx="335" cy="35" r="1.5" stroke="#0E0E15"/>
        <circle cx="335" cy="35" r="1.5" stroke="#0E0E15"/>
        <circle cx="230" cy="50" r="1.5" stroke="#0E0E15"/>
        <circle cx="230" cy="50" r="1.5" stroke="#0E0E15"/>
        <circle cx="230" cy="50" r="1.5" stroke="#0E0E15"/>
        <circle cx="335" cy="50" r="1.5" stroke="#0E0E15"/>
        <circle cx="335" cy="50" r="1.5" stroke="#0E0E15"/>
        <circle cx="335" cy="50" r="1.5" stroke="#0E0E15"/>
        <circle cx="245" cy="5" r="5" fill="white"/>
        <circle cx="245" cy="5" r="5" fill="white"/>
        <circle cx="245" cy="5" r="5" fill="white"/>
        <circle cx="350" cy="5" r="5" fill="white"/>
        <circle cx="350" cy="5" r="5" fill="white"/>
        <circle cx="350" cy="5" r="5" fill="white"/>
        <circle cx="380" cy="5" r="1.5" stroke="#0E0E15"/>
        <circle cx="380" cy="5" r="1.5" stroke="#0E0E15"/>
        <circle cx="380" cy="5" r="1.5" stroke="#0E0E15"/>
        <circle cx="245" cy="20" r="1.5" stroke="#0E0E15"/>
        <circle cx="245" cy="20" r="1.5" stroke="#0E0E15"/>
        <circle cx="245" cy="20" r="1.5" stroke="#0E0E15"/>
        <circle cx="350" cy="20" r="5" fill="white"/>
        <circle cx="350" cy="20" r="5" fill="white"/>
        <circle cx="350" cy="20" r="5" fill="white"/>
        <circle cx="380" cy="20" r="1.5" stroke="#0E0E15"/>
        <circle cx="380" cy="20" r="1.5" stroke="#0E0E15"/>
        <circle cx="380" cy="20" r="1.5" stroke="#0E0E15"/>
        <circle cx="245" cy="35" r="1.5" stroke="#0E0E15"/>
        <circle cx="245" cy="35" r="1.5" stroke="#0E0E15"/>
        <circle cx="245" cy="35" r="1.5" stroke="#0E0E15"/>
        <circle cx="350" cy="35" r="5" fill="white"/>
        <circle cx="350" cy="35" r="5" fill="white"/>
        <circle cx="350" cy="35" r="5" fill="white"/>
        <circle cx="380" cy="35" r="5" fill="white"/>
        <circle cx="380" cy="35" r="5" fill="white"/>
        <circle cx="380" cy="35" r="5" fill="white"/>
        <circle cx="245" cy="50" r="5" fill="white"/>
        <circle cx="245" cy="50" r="5" fill="white"/>
        <circle cx="245" cy="50" r="5" fill="white"/>
        <circle cx="350" cy="50" r="5" fill="white"/>
        <circle cx="350" cy="50" r="5" fill="white"/>
        <circle cx="350" cy="50" r="5" fill="white"/>
        <circle cx="380" cy="50" r="1.5" stroke="#0E0E15"/>
        <circle cx="380" cy="50" r="1.5" stroke="#0E0E15"/>
        <circle cx="380" cy="50" r="1.5" stroke="#0E0E15"/>
        <circle cx="260" cy="5" r="5" fill="white"/>
        <circle cx="260" cy="5" r="5" fill="white"/>
        <circle cx="260" cy="5" r="5" fill="white"/>
        <circle cx="365" cy="5" r="1.5" stroke="#0E0E15"/>
        <circle cx="365" cy="5" r="1.5" stroke="#0E0E15"/>
        <circle cx="365" cy="5" r="1.5" stroke="#0E0E15"/>
        <circle cx="395" cy="5" r="1.5" stroke="#0E0E15"/>
        <circle cx="395" cy="5" r="1.5" stroke="#0E0E15"/>
        <circle cx="395" cy="5" r="1.5" stroke="#0E0E15"/>
        <circle cx="410" cy="5" r="5" fill="white"/>
        <circle cx="410" cy="5" r="5" fill="white"/>
        <circle cx="410" cy="5" r="5" fill="white"/>
        <circle cx="425" cy="5" r="1.5" stroke="#0E0E15"/>
        <circle cx="425" cy="5" r="1.5" stroke="#0E0E15"/>
        <circle cx="425" cy="5" r="1.5" stroke="#0E0E15"/>
        <circle cx="440" cy="5" r="1.5" stroke="#0E0E15"/>
        <circle cx="440" cy="5" r="1.5" stroke="#0E0E15"/>
        <circle cx="440" cy="5" r="1.5" stroke="#0E0E15"/>
        <circle cx="455" cy="5" r="1.5" stroke="#0E0E15"/>
        <circle cx="455" cy="5" r="1.5" stroke="#0E0E15"/>
        <circle cx="455" cy="5" r="1.5" stroke="#0E0E15"/>
        <circle cx="470" cy="5" r="5" fill="white"/>
        <circle cx="470" cy="5" r="5" fill="white"/>
        <circle cx="470" cy="5" r="5" fill="white"/>
        <circle cx="485" cy="5" r="5" fill="white"/>
        <circle cx="485" cy="5" r="5" fill="white"/>
        <circle cx="485" cy="5" r="5" fill="white"/>
        <circle cx="500" cy="5" r="1.5" stroke="#0E0E15"/>
        <circle cx="500" cy="5" r="1.5" stroke="#0E0E15"/>
        <circle cx="500" cy="5" r="1.5" stroke="#0E0E15"/>
        <circle cx="515" cy="5" r="5" fill="white"/>
        <circle cx="515" cy="5" r="5" fill="white"/>
        <circle cx="515" cy="5" r="5" fill="white"/>
        <circle cx="530" cy="5" r="1.5" stroke="#0E0E15"/>
        <circle cx="530" cy="5" r="1.5" stroke="#0E0E15"/>
        <circle cx="530" cy="5" r="1.5" stroke="#0E0E15"/>
        <circle cx="545" cy="5" r="1.5" stroke="#0E0E15"/>
        <circle cx="545" cy="5" r="1.5" stroke="#0E0E15"/>
        <circle cx="545" cy="5" r="1.5" stroke="#0E0E15"/>
        <circle cx="560" cy="5" r="1.5" stroke="#0E0E15"/>
        <circle cx="560" cy="5" r="1.5" stroke="#0E0E15"/>
        <circle cx="560" cy="5" r="1.5" stroke="#0E0E15"/>
        <circle cx="260" cy="20" r="1.5" stroke="#0E0E15"/>
        <circle cx="260" cy="20" r="1.5" stroke="#0E0E15"/>
        <circle cx="260" cy="20" r="1.5" stroke="#0E0E15"/>
        <circle cx="365" cy="20" r="1.5" stroke="#0E0E15"/>
        <circle cx="365" cy="20" r="1.5" stroke="#0E0E15"/>
        <circle cx="365" cy="20" r="1.5" stroke="#0E0E15"/>
        <circle cx="395" cy="20" r="5" fill="white"/>
        <circle cx="395" cy="20" r="5" fill="white"/>
        <circle cx="395" cy="20" r="5" fill="white"/>
        <circle cx="410" cy="20" r="5" fill="white"/>
        <circle cx="410" cy="20" r="5" fill="white"/>
        <circle cx="410" cy="20" r="5" fill="white"/>
        <circle cx="425" cy="20" r="1.5" stroke="#0E0E15"/>
        <circle cx="425" cy="20" r="1.5" stroke="#0E0E15"/>
        <circle cx="425" cy="20" r="1.5" stroke="#0E0E15"/>
        <circle cx="440" cy="20" r="1.5" stroke="#0E0E15"/>
        <circle cx="440" cy="20" r="1.5" stroke="#0E0E15"/>
        <circle cx="440" cy="20" r="1.5" stroke="#0E0E15"/>
        <circle cx="455" cy="20" r="5" fill="white"/>
        <circle cx="455" cy="20" r="5" fill="white"/>
        <circle cx="455" cy="20" r="5" fill="white"/>
        <circle cx="470" cy="20" r="1.5" stroke="#0E0E15"/>
        <circle cx="470" cy="20" r="1.5" stroke="#0E0E15"/>
        <circle cx="470" cy="20" r="1.5" stroke="#0E0E15"/>
        <circle cx="485" cy="20" r="5" fill="white"/>
        <circle cx="485" cy="20" r="5" fill="white"/>
        <circle cx="485" cy="20" r="5" fill="white"/>
        <circle cx="500" cy="20" r="1.5" stroke="#0E0E15"/>
        <circle cx="500" cy="20" r="1.5" stroke="#0E0E15"/>
        <circle cx="500" cy="20" r="1.5" stroke="#0E0E15"/>
        <circle cx="515" cy="20" r="5" fill="white"/>
        <circle cx="515" cy="20" r="5" fill="white"/>
        <circle cx="515" cy="20" r="5" fill="white"/>
        <circle cx="530" cy="20" r="1.5" stroke="#0E0E15"/>
        <circle cx="530" cy="20" r="1.5" stroke="#0E0E15"/>
        <circle cx="530" cy="20" r="1.5" stroke="#0E0E15"/>
        <circle cx="545" cy="20" r="1.5" stroke="#0E0E15"/>
        <circle cx="545" cy="20" r="1.5" stroke="#0E0E15"/>
        <circle cx="545" cy="20" r="1.5" stroke="#0E0E15"/>
        <circle cx="560" cy="20" r="1.5" stroke="#0E0E15"/>
        <circle cx="560" cy="20" r="1.5" stroke="#0E0E15"/>
        <circle cx="560" cy="20" r="1.5" stroke="#0E0E15"/>
        <circle cx="260" cy="35" r="1.5" stroke="#0E0E15"/>
        <circle cx="260" cy="35" r="1.5" stroke="#0E0E15"/>
        <circle cx="260" cy="35" r="1.5" stroke="#0E0E15"/>
        <circle cx="365" cy="35" r="1.5" stroke="#0E0E15"/>
        <circle cx="365" cy="35" r="1.5" stroke="#0E0E15"/>
        <circle cx="365" cy="35" r="1.5" stroke="#0E0E15"/>
        <circle cx="395" cy="35" r="1.5" stroke="#0E0E15"/>
        <circle cx="395" cy="35" r="1.5" stroke="#0E0E15"/>
        <circle cx="395" cy="35" r="1.5" stroke="#0E0E15"/>
        <circle cx="410" cy="35" r="5" fill="white"/>
        <circle cx="410" cy="35" r="5" fill="white"/>
        <circle cx="410" cy="35" r="5" fill="white"/>
        <circle cx="425" cy="35" r="1.5" stroke="#0E0E15"/>
        <circle cx="425" cy="35" r="1.5" stroke="#0E0E15"/>
        <circle cx="425" cy="35" r="1.5" stroke="#0E0E15"/>
        <circle cx="440" cy="35" r="5" fill="white"/>
        <circle cx="440" cy="35" r="5" fill="white"/>
        <circle cx="440" cy="35" r="5" fill="white"/>
        <circle cx="455" cy="35" r="1.5" stroke="#0E0E15"/>
        <circle cx="455" cy="35" r="1.5" stroke="#0E0E15"/>
        <circle cx="455" cy="35" r="1.5" stroke="#0E0E15"/>
        <circle cx="470" cy="35" r="1.5" stroke="#0E0E15"/>
        <circle cx="470" cy="35" r="1.5" stroke="#0E0E15"/>
        <circle cx="470" cy="35" r="1.5" stroke="#0E0E15"/>
        <circle cx="485" cy="35" r="5" fill="white"/>
        <circle cx="485" cy="35" r="5" fill="white"/>
        <circle cx="485" cy="35" r="5" fill="white"/>
        <circle cx="500" cy="35" r="1.5" stroke="#0E0E15"/>
        <circle cx="500" cy="35" r="1.5" stroke="#0E0E15"/>
        <circle cx="500" cy="35" r="1.5" stroke="#0E0E15"/>
        <circle cx="515" cy="35" r="5" fill="white"/>
        <circle cx="515" cy="35" r="5" fill="white"/>
        <circle cx="515" cy="35" r="5" fill="white"/>
        <circle cx="530" cy="35" r="5" fill="white"/>
        <circle cx="530" cy="35" r="5" fill="white"/>
        <circle cx="530" cy="35" r="5" fill="white"/>
        <circle cx="545" cy="35" r="5" fill="white"/>
        <circle cx="545" cy="35" r="5" fill="white"/>
        <circle cx="545" cy="35" r="5" fill="white"/>
        <circle cx="560" cy="35" r="1.5" stroke="#0E0E15"/>
        <circle cx="560" cy="35" r="1.5" stroke="#0E0E15"/>
        <circle cx="560" cy="35" r="1.5" stroke="#0E0E15"/>
        <circle cx="260" cy="50" r="5" fill="white"/>
        <circle cx="260" cy="50" r="5" fill="white"/>
        <circle cx="260" cy="50" r="5" fill="white"/>
        <circle cx="365" cy="50" r="5" fill="white"/>
        <circle cx="365" cy="50" r="5" fill="white"/>
        <circle cx="365" cy="50" r="5" fill="white"/>
        <circle cx="395" cy="50" r="1.5" stroke="#0E0E15"/>
        <circle cx="395" cy="50" r="1.5" stroke="#0E0E15"/>
        <circle cx="395" cy="50" r="1.5" stroke="#0E0E15"/>
        <circle cx="410" cy="50" r="5" fill="white"/>
        <circle cx="410" cy="50" r="5" fill="white"/>
        <circle cx="410" cy="50" r="5" fill="white"/>
        <circle cx="425" cy="50" r="1.5" stroke="#0E0E15"/>
        <circle cx="425" cy="50" r="1.5" stroke="#0E0E15"/>
        <circle cx="425" cy="50" r="1.5" stroke="#0E0E15"/>
        <circle cx="440" cy="50" r="5" fill="white"/>
        <circle cx="440" cy="50" r="5" fill="white"/>
        <circle cx="440" cy="50" r="5" fill="white"/>
        <circle cx="455" cy="50" r="1.5" stroke="#0E0E15"/>
        <circle cx="455" cy="50" r="1.5" stroke="#0E0E15"/>
        <circle cx="455" cy="50" r="1.5" stroke="#0E0E15"/>
        <circle cx="470" cy="50" r="1.5" stroke="#0E0E15"/>
        <circle cx="470" cy="50" r="1.5" stroke="#0E0E15"/>
        <circle cx="470" cy="50" r="1.5" stroke="#0E0E15"/>
        <circle cx="485" cy="50" r="5" fill="white"/>
        <circle cx="485" cy="50" r="5" fill="white"/>
        <circle cx="485" cy="50" r="5" fill="white"/>
        <circle cx="500" cy="50" r="1.5" stroke="#0E0E15"/>
        <circle cx="500" cy="50" r="1.5" stroke="#0E0E15"/>
        <circle cx="500" cy="50" r="1.5" stroke="#0E0E15"/>
        <circle cx="515" cy="50" r="5" fill="white"/>
        <circle cx="515" cy="50" r="5" fill="white"/>
        <circle cx="515" cy="50" r="5" fill="white"/>
        <circle cx="530" cy="50" r="1.5" stroke="#0E0E15"/>
        <circle cx="530" cy="50" r="1.5" stroke="#0E0E15"/>
        <circle cx="530" cy="50" r="1.5" stroke="#0E0E15"/>
        <circle cx="545" cy="50" r="1.5" stroke="#0E0E15"/>
        <circle cx="545" cy="50" r="1.5" stroke="#0E0E15"/>
        <circle cx="545" cy="50" r="1.5" stroke="#0E0E15"/>
        <circle cx="560" cy="50" r="5" fill="white"/>
    </g>
    <defs>
        <clipPath id="clip0_602_33552">
            <rect width="565" height="70" fill="white"/>
        </clipPath>
    </defs>
</svg>
