<svg width="276" height="276" viewBox="0 0 276 276" fill="none" xmlns="http://www.w3.org/2000/svg">
    <path fill-rule="evenodd" clip-rule="evenodd" d="M125 63C125 28.7583 97.2417 1.00001 63 1C28.7584 1 1 28.7583 1 63C1 97.2417 28.7583 125 63 125C97.2416 125 125 97.2417 125 63ZM126 63C126 28.2061 97.794 7.62939e-06 63 0C28.2061 0 0 28.2061 0 63C0 97.7939 28.206 126 63 126C97.7939 126 126 97.7939 126 63ZM213 1C247.242 1.00001 275 28.7583 275 63C275 97.2417 247.242 125 213 125C178.758 125 151 97.2417 151 63C151 28.7583 178.758 1 213 1ZM213 0C247.794 7.62939e-06 276 28.2061 276 63C276 97.7939 247.794 126 213 126C178.206 126 150 97.7939 150 63C150 28.2061 178.206 0 213 0ZM213 275C178.758 275 151 247.242 151 213C151 178.758 178.758 151 213 151C247.242 151 275 178.758 275 213C275 247.242 247.242 275 213 275ZM150 213C150 247.794 178.206 276 213 276C247.794 276 276 247.794 276 213C276 178.206 247.794 150 213 150C178.206 150 150 178.206 150 213Z" fill="url(#paint0_linear_6_5)"/>
    <defs>
        <linearGradient id="paint0_linear_6_5" x1="0" y1="0" x2="276" y2="276" gradientUnits="userSpaceOnUse">
            <stop offset="0.224849" stop-color="white" stop-opacity="0.05"/>
            <stop offset="0.486846" stop-color="white"/>
            <stop offset="0.725179" stop-color="white" stop-opacity="0.05"/>
        </linearGradient>
    </defs>
</svg>
