<?xml version="1.0" encoding="UTF-8"?>
<svg version="1.1" xmlns="http://www.w3.org/2000/svg" width="256" height="254">
<path d="M0 0 C0 13.53 0 27.06 0 41 C-5.94 41.66 -11.88 42.32 -18 43 C-38.9890365 47.47307335 -56.51399843 57.05995464 -69.00390625 74.84375 C-81.42160325 94.47877774 -85.49863922 115.22709574 -81 138 C-75.35306063 161.11239818 -62.6489911 181.28074475 -42.16210938 193.94897461 C-40.44908865 194.97887045 -38.72482744 195.99000209 -37 197 C-36.19175781 197.49371094 -35.38351563 197.98742187 -34.55078125 198.49609375 C-16.23262383 208.75809817 6.04014574 209.88791668 26 205 C37.33122835 201.68146754 46.93774046 196.51545457 56 189 C56.81082031 188.39027344 57.62164062 187.78054687 58.45703125 187.15234375 C71.12329656 176.43174131 80.56722858 157.99931019 82.24072266 141.64794922 C82.53984854 137.61409068 82.71019883 133.58581472 82.82421875 129.54296875 C83 126 83 126 84 125 C87.02977804 124.91128727 90.03667022 124.8848065 93.06640625 124.90234375 C93.97502914 124.9037587 94.88365204 124.90517365 95.81980896 124.90663147 C98.73407221 124.91224807 101.64825981 124.92480335 104.5625 124.9375 C106.53320202 124.94251286 108.50390524 124.94707614 110.47460938 124.95117188 C115.31643559 124.96222289 120.15820495 124.97949862 125 125 C125.20900533 135.47212322 125.38600077 145.50793294 122.875 155.75 C122.64981689 156.71607178 122.42463379 157.68214355 122.19262695 158.67749023 C114.95021161 188.4540714 95.81934642 215.4243199 69.84472656 231.88720703 C50.95952588 243.27931194 30.94266989 249.5239933 8.82470703 249.34057617 C7.36453265 249.33972733 5.90435699 249.34021004 4.44418335 249.34190369 C0.52766609 249.34275505 -3.38856853 249.3252707 -7.30502081 249.30418181 C-11.4155819 249.2852697 -15.52615138 249.28365324 -19.63674927 249.28010559 C-27.39952471 249.27082741 -35.16217152 249.24627167 -42.92489064 249.21605712 C-51.77146165 249.1823805 -60.61803921 249.16599396 -69.4646585 249.15097082 C-87.64317825 249.11971771 -105.82157874 249.06704062 -124 249 C-124.09378878 229.99684405 -124.16414741 210.99373562 -124.20724869 191.99039555 C-124.22780074 183.16514879 -124.25577909 174.34004653 -124.30175781 165.51489258 C-124.34185254 157.8153879 -124.36748615 150.11598797 -124.37635398 142.41638178 C-124.38153078 138.34625829 -124.39354091 134.27643425 -124.42292023 130.20640755 C-124.64920794 97.57976708 -124.64920794 97.57976708 -120 84 C-119.4019455 82.23191734 -119.4019455 82.23191734 -118.79180908 80.42811584 C-109.21961392 53.42183344 -91.07470385 30.19483235 -66 16 C-65.37303223 15.64115723 -64.74606445 15.28231445 -64.10009766 14.91259766 C-43.52810664 3.36075393 -23.63339355 0 0 0 Z " fill="#0D0D14" transform="translate(124,5)"/>
<path d="M0 0 C2.44502368 2.14791921 4.74997365 4.33242506 6.9609375 6.72265625 C7.43015625 7.18671875 7.899375 7.65078125 8.3828125 8.12890625 C17.18637978 17.38626566 21.37536239 30.37765228 21.2734375 42.97265625 C21.26779785 43.71209473 21.2621582 44.4515332 21.25634766 45.21337891 C20.93553861 59.85942362 15.13319925 73.12331481 4.9609375 83.72265625 C-8.37030238 94.93845986 -22.55085231 100.10480825 -40.05175781 98.9296875 C-55.23075569 97.34838649 -68.50654227 89.45005929 -78.0390625 77.72265625 C-87.68690311 64.32717278 -90.74333651 49.75804933 -88.60546875 33.40625 C-85.87941279 19.33573755 -78.47502696 7.32709726 -67.0390625 -1.27734375 C-46.64841984 -14.51822006 -19.38755243 -16.02024069 0 0 Z " fill="#005055" transform="translate(158.0390625,86.27734375)"/>
<path d="M0 0 C6.32998764 4.79912691 10.38023315 11.22206294 12 19 C12.60355258 27.75151244 11.02944619 35.03488167 5.3125 41.875 C0.53511979 46.86392472 -5.36501105 50.61063098 -12.41796875 51.203125 C-21.37448773 51.35471629 -28.0086163 49.60918612 -35.10546875 43.99609375 C-40.67030847 38.13293272 -44 30.04634912 -44 22 C-42.83547755 13.17048652 -39.05886726 6.05934533 -32.125 0.4765625 C-22.48083268 -6.22471553 -10.0207975 -5.88743562 0 0 Z " fill="#0D0D15" transform="translate(243,69)"/>
<path d="M0 0 C1.12776855 -0.0165564 1.12776855 -0.0165564 2.27832031 -0.03344727 C9.0417577 0.13911963 14.10671531 2.33369834 19.30078125 6.6328125 C25.25788425 13.31759475 28.62219714 20.30673846 28.23046875 29.484375 C27.14903999 35.99671522 24.79408498 43.09426383 19.875 47.625 C10.82551762 53.78409587 3.43372142 56.12003307 -7.5625 54.19921875 C-14.51077492 52.23295345 -19.70049023 48.26477273 -23.69921875 42.26171875 C-27.61561507 35.04612324 -29.13037734 28.64885938 -27.0625 20.625 C-24.23206272 12.48749282 -20.01079079 5.86454999 -12.3046875 1.66015625 C-8.15622803 0.30961355 -4.34329486 0.05018326 0 0 Z " fill="#0D0D14" transform="translate(227.125,-0.625)"/>
<path d="M0 0 C1.7421875 1.1171875 1.7421875 1.1171875 3.375 2.4375 C3.99632812 2.93507813 4.61765625 3.43265625 5.2578125 3.9453125 C11.73294566 9.77022308 14.53391785 16.08087203 15 24.75 C14.70347149 32.92844767 11.92747554 39.75631158 6.21875 45.671875 C-1.44467552 52.02307012 -8.9124036 53.08596712 -18.625 52.4375 C-25.22482801 51.41338876 -29.95000326 48.06872336 -34.625 43.4375 C-39.78082961 36.29020066 -41.37844536 29.15187743 -40.625 20.4375 C-39.07498751 12.06174442 -34.32998696 5.82166178 -27.375 1 C-20.30217675 -3.01864958 -7.56516059 -3.50544075 0 0 Z " fill="#0E0E15" transform="translate(174.625,1.5625)"/>
</svg>
